<svg width="64" height="64" viewBox="0 0 64 64" fill="none" xmlns="http://www.w3.org/2000/svg">
<g clip-path="url(#clip0_1_2)">
<path d="M32.276 41.056C32.276 42.568 30.962 43.324 28.334 43.324C24.41 43.324 20.81 41.794 17.534 38.734C15.986 37.294 14.726 35.422 13.754 33.118C12.818 30.814 12.35 28.294 12.35 25.558C12.35 19.978 14.15 15.226 17.75 11.302C21.35 7.378 25.724 5.416 30.872 5.416C36.02 5.416 40.178 7.09 43.346 10.438C46.514 13.75 48.098 18.106 48.098 23.506C48.098 26.242 47.648 28.744 46.748 31.012C45.848 33.244 44.75 35.098 43.454 36.574C42.194 38.014 40.916 39.364 39.62 40.624C36.524 43.684 34.976 46.528 34.976 49.156C34.976 50.848 35.444 52.144 36.38 53.044C37.352 53.98 38.468 54.448 39.728 54.448C41.024 54.448 42.122 54.196 43.022 53.692C43.958 53.188 44.732 52.684 45.344 52.18C45.956 51.712 46.388 51.478 46.64 51.478C46.928 51.478 47.162 51.568 47.342 51.748C47.558 51.964 47.666 52.216 47.666 52.504C47.666 53.584 46.784 54.88 45.02 56.392C43.256 57.904 41.222 58.66 38.918 58.66C36.614 58.66 34.742 57.922 33.302 56.446C31.862 55.006 31.142 52.972 31.142 50.344C31.142 46.96 32.618 43.702 35.57 40.57C36.794 39.274 38.018 37.942 39.242 36.574C40.466 35.206 41.51 33.55 42.374 31.606C43.238 29.662 43.67 27.538 43.67 25.234C43.67 20.986 42.392 17.242 39.836 14.002C37.28 10.726 33.824 9.088 29.468 9.088C25.724 9.088 22.664 10.384 20.288 12.976C17.948 15.532 16.778 19.042 16.778 23.506C16.778 27.574 17.84 31.102 19.964 34.09C22.196 37.294 25.778 39.148 30.71 39.652C31.754 39.724 32.276 40.192 32.276 41.056Z" fill="#28C7AF"/>
</g>
<defs>
<clipPath id="clip0_1_2">
<rect width="64" height="64" fill="white"/>
</clipPath>
</defs>
</svg>
